<svg width="46" height="42" viewBox="0 0 46 42" fill="none" xmlns="http://www.w3.org/2000/svg">
<ellipse cx="23" cy="21" rx="23" ry="21" fill="#BBDEFB"/>
<path d="M35 21.5C35 21.7785 34.8903 22.0455 34.6949 22.2424C34.4996 22.4393 34.2346 22.5499 33.9584 22.5499H13.5567L21.1541 30.2066C21.2509 30.3042 21.3276 30.42 21.38 30.5475C21.4324 30.6749 21.4594 30.8115 21.4594 30.9495C21.4594 31.0874 21.4324 31.224 21.38 31.3515C21.3276 31.4789 21.2509 31.5948 21.1541 31.6923C21.0573 31.7899 20.9424 31.8672 20.816 31.92C20.6895 31.9728 20.554 32 20.4171 32C20.2803 32 20.1448 31.9728 20.0183 31.92C19.8919 31.8672 19.777 31.7899 19.6802 31.6923L10.3055 22.2428C10.2086 22.1453 10.1318 22.0295 10.0794 21.9021C10.027 21.7746 10 21.638 10 21.5C10 21.362 10.027 21.2254 10.0794 21.0979C10.1318 20.9705 10.2086 20.8547 10.3055 20.7572L19.6802 11.3077C19.8756 11.1107 20.1407 11 20.4171 11C20.6936 11 20.9586 11.1107 21.1541 11.3077C21.3496 11.5047 21.4594 11.7719 21.4594 12.0505C21.4594 12.3291 21.3496 12.5963 21.1541 12.7934L13.5567 20.4501H33.9584C34.2346 20.4501 34.4996 20.5607 34.6949 20.7576C34.8903 20.9545 35 21.2215 35 21.5Z" fill="black"/>
</svg>
