<svg width="46" height="42" viewBox="0 0 46 42" fill="none" xmlns="http://www.w3.org/2000/svg">
<ellipse cx="23" cy="21" rx="23" ry="21" fill="#1976D2"/>
<path d="M33.8399 20.4737C33.5549 20.4743 33.2704 20.4985 32.9892 20.546L32.2391 18.5539C32.7642 18.4309 33.3012 18.3687 33.8399 18.3684C34.1134 18.3684 34.3757 18.2575 34.5691 18.0601C34.7624 17.8627 34.8711 17.595 34.8711 17.3158C34.8711 17.0366 34.7624 16.7689 34.5691 16.5715C34.3757 16.3741 34.1134 16.2632 33.8399 16.2632H31.3755L29.647 11.675C29.5722 11.4763 29.4402 11.3054 29.2683 11.1849C29.0964 11.0644 28.8927 10.9999 28.6842 11H24.5596C24.2861 11 24.0238 11.1109 23.8305 11.3083C23.6371 11.5057 23.5285 11.7735 23.5285 12.0526C23.5285 12.3318 23.6371 12.5995 23.8305 12.797C24.0238 12.9944 24.2861 13.1053 24.5596 13.1053H27.9766L29.1663 16.2632H25.5907C23.2062 16.2632 21.2728 16.8303 20.0006 17.9026C19.7013 18.1492 19.3403 18.3053 18.9586 18.3534C18.5768 18.4016 18.1895 18.3398 17.8404 18.175C16.4767 17.5421 10.0114 14.8592 9.44169 14.6316L8.70571 14.3368C8.50063 14.2453 8.28349 14.185 8.06124 14.1579C7.82084 14.1585 7.5882 14.2448 7.40353 14.4019C7.21887 14.5591 7.09378 14.7771 7.0499 15.0184C7.00603 15.2597 7.04611 15.509 7.16323 15.7233C7.28035 15.9377 7.46714 16.1035 7.69132 16.1921C7.75061 16.2158 13.7738 18.6 16.9884 20.0908C17.6896 20.4164 18.4658 20.5361 19.2299 20.4364C19.9939 20.3367 20.7157 20.0215 21.3141 19.5263C21.9405 19 23.192 18.3684 25.592 18.3684H28.0178C26.5126 19.602 25.4232 21.2855 24.9025 23.1829C24.7777 23.6186 24.5172 24.0009 24.1603 24.2719C23.8035 24.5428 23.3699 24.6875 22.9252 24.6842H16.2073C15.9518 23.4063 15.2405 22.2707 14.2114 21.4977C13.1823 20.7247 11.9087 20.3692 10.6375 20.5003C9.36634 20.6314 8.1881 21.2397 7.33126 22.2072C6.47441 23.1747 6 24.4325 6 25.7368C6 27.0411 6.47441 28.299 7.33126 29.2665C8.1881 30.234 9.36634 30.8422 10.6375 30.9733C11.9087 31.1044 13.1823 30.749 14.2114 29.976C15.2405 29.203 15.9518 28.0674 16.2073 26.7895H22.9252C23.8196 26.7915 24.6902 26.4958 25.4052 25.9474C26.1201 25.3989 26.6405 24.6275 26.8874 23.75C27.1446 22.8166 27.5798 21.9442 28.1679 21.1829C28.756 20.4215 29.4856 19.7861 30.3147 19.3132L31.0649 21.3039C30.0197 21.9868 29.2509 23.0315 28.8996 24.2464C28.5482 25.4613 28.6378 26.7647 29.1519 27.9176C29.6661 29.0705 30.5703 29.9953 31.6985 30.5225C32.8268 31.0497 34.1035 31.1438 35.2943 30.7875C36.4851 30.4313 37.51 29.6486 38.1811 28.5831C38.8521 27.5175 39.1242 26.2407 38.9474 24.9869C38.7706 23.7331 38.1568 22.5865 37.2186 21.7575C36.2804 20.9284 35.0808 20.4726 33.8399 20.4737ZM11.1547 26.7895H14.0703C13.827 27.4918 13.3484 28.0837 12.719 28.4607C12.0895 28.8376 11.3498 28.9752 10.6306 28.8492C9.9114 28.7233 9.25896 28.3418 8.78861 27.7723C8.31826 27.2027 8.06029 26.4818 8.06029 25.7368C8.06029 24.9919 8.31826 24.2709 8.78861 23.7014C9.25896 23.1319 9.9114 22.7504 10.6306 22.6244C11.3498 22.4984 12.0895 22.6361 12.719 23.013C13.3484 23.3899 13.827 23.9819 14.0703 24.6842H11.1547C10.8812 24.6842 10.6189 24.7951 10.4256 24.9925C10.2322 25.1899 10.1235 25.4577 10.1235 25.7368C10.1235 26.016 10.2322 26.2837 10.4256 26.4812C10.6189 26.6786 10.8812 26.7895 11.1547 26.7895ZM33.8399 28.8947C33.2081 28.8939 32.5916 28.6956 32.0734 28.3265C31.5553 27.9573 31.1603 27.435 30.9415 26.8299C30.7228 26.2247 30.6909 25.5657 30.8501 24.9414C31.0092 24.3172 31.3518 23.7577 31.8318 23.3382L32.8771 26.1145C32.9752 26.3751 33.1707 26.5854 33.4207 26.6989C33.6706 26.8124 33.9545 26.8199 34.2099 26.7197C34.4652 26.6196 34.6711 26.42 34.7823 26.1648C34.8935 25.9097 34.9009 25.6199 34.8028 25.3592L33.7561 22.5789H33.8399C34.6604 22.5789 35.4472 22.9116 36.0273 23.5039C36.6075 24.0961 36.9334 24.8993 36.9334 25.7368C36.9334 26.5744 36.6075 27.3776 36.0273 27.9698C35.4472 28.562 34.6604 28.8947 33.8399 28.8947Z" fill="white"/>
</svg>
