<svg width="46" height="42" viewBox="0 0 46 42" fill="none" xmlns="http://www.w3.org/2000/svg">
<ellipse cx="23" cy="21" rx="23" ry="21" fill="#1976D2"/>
<path d="M33.8446 22.5426C33.5739 22.5425 33.3036 22.5643 33.0364 22.6079L28.6225 10.6781C28.5487 10.4789 28.4168 10.3073 28.2443 10.1861C28.0717 10.0649 27.8668 10 27.6569 10H23.5318C23.2583 10 22.996 10.1101 22.8026 10.3061C22.6092 10.5022 22.5005 10.768 22.5005 11.0452C22.5005 11.3224 22.6092 11.5883 22.8026 11.7843C22.996 11.9803 23.2583 12.0904 23.5318 12.0904H26.9428L31.1066 23.3435C30.5148 23.719 30.0041 24.2121 29.6053 24.793C29.2065 25.3738 28.9279 26.0305 28.7862 26.7235H23.6014L20.3787 17.9946C20.3045 17.7944 20.1716 17.622 19.9978 17.5007C19.824 17.3795 19.6177 17.3152 19.4067 17.3165H9.09385C8.82034 17.3165 8.55802 17.4266 8.36462 17.6227C8.17122 17.8187 8.06257 18.0845 8.06257 18.3617C8.06257 18.6389 8.17122 18.9048 8.36462 19.1008C8.55802 19.2968 8.82034 19.4069 9.09385 19.4069H10.1251V21.1564C8.89174 21.7514 7.84977 22.6882 7.11975 23.8583C6.38974 25.0285 6.00152 26.3842 6 27.7687C6 28.0459 6.10865 28.3117 6.30206 28.5078C6.49546 28.7038 6.75777 28.8139 7.03128 28.8139H8.16569C8.40239 29.9953 9.03479 31.0574 9.95573 31.8203C10.8767 32.5832 12.0295 33 13.219 33C14.4084 33 15.5613 32.5832 16.4822 31.8203C17.4032 31.0574 18.0356 29.9953 18.2723 28.8139H28.7913C28.9865 29.7827 29.4488 30.6756 30.1246 31.3887C30.8004 32.1019 31.662 32.6061 32.6092 32.8428C33.5565 33.0795 34.5506 33.039 35.476 32.726C36.4014 32.4129 37.2203 31.8402 37.8374 31.0744C38.4545 30.3085 38.8446 29.3809 38.9623 28.3993C39.08 27.4177 38.9206 26.4225 38.5025 25.529C38.0844 24.6356 37.4248 23.8808 36.6003 23.3522C35.7758 22.8235 34.8203 22.5428 33.8446 22.5426ZM11.5006 22.8392C11.7015 22.7671 11.8755 22.6336 11.9985 22.4572C12.1216 22.2808 12.1877 22.0701 12.1877 21.8541V19.4069H18.6925L21.3996 26.7235H8.16698C8.34542 25.8398 8.7461 25.0179 9.33016 24.3373C9.91423 23.6568 10.6619 23.1407 11.5006 22.8392ZM13.219 30.9043C12.5794 30.9041 11.9555 30.703 11.4333 30.3286C10.9111 29.9543 10.5162 29.4251 10.303 28.8139H16.1349C15.9217 29.4251 15.5268 29.9543 15.0046 30.3286C14.4825 30.703 13.8586 30.9041 13.219 30.9043ZM33.8446 30.9043C33.2104 30.9036 32.5918 30.7054 32.0724 30.3365C31.5531 29.9676 31.1581 29.4458 30.9411 28.8419C30.724 28.2379 30.6953 27.581 30.8589 26.96C31.0225 26.3389 31.3704 25.7839 31.8555 25.3699L32.8791 28.1358C32.9267 28.2645 32.9988 28.3824 33.0913 28.4829C33.1839 28.5833 33.295 28.6643 33.4184 28.7212C33.5418 28.7781 33.6751 28.8098 33.8106 28.8145C33.9461 28.8192 34.0812 28.7968 34.2082 28.7486C34.3351 28.7004 34.4515 28.6273 34.5506 28.5335C34.6497 28.4397 34.7296 28.327 34.7857 28.202C34.8419 28.0769 34.8731 27.9418 34.8778 27.8045C34.8824 27.6671 34.8603 27.5302 34.8128 27.4015L33.7866 24.633H33.8446C34.6652 24.633 35.4521 24.9634 36.0323 25.5514C36.6125 26.1395 36.9385 26.9371 36.9385 27.7687C36.9385 28.6003 36.6125 29.3979 36.0323 29.9859C35.4521 30.574 34.6652 30.9043 33.8446 30.9043Z" fill="white"/>
</svg>
