<svg width="46" height="42" viewBox="0 0 46 42" fill="none" xmlns="http://www.w3.org/2000/svg">
<ellipse cx="23" cy="21" rx="23" ry="21" fill="#1976D2"/>
<path d="M29.7333 9H15.2667C14.1704 9 13.1191 9.43899 12.344 10.2204C11.5688 11.0018 11.1333 12.0616 11.1333 13.1667V31.9167C11.1333 32.4692 11.3511 32.9991 11.7386 33.3898C12.1262 33.7805 12.6519 34 13.2 34H16.3C16.8481 34 17.3738 33.7805 17.7614 33.3898C18.1489 32.9991 18.3667 32.4692 18.3667 31.9167V29.8333H26.6333V31.9167C26.6333 32.4692 26.8511 32.9991 27.2386 33.3898C27.6262 33.7805 28.1519 34 28.7 34H31.8C32.3481 34 32.8738 33.7805 33.2614 33.3898C33.6489 32.9991 33.8667 32.4692 33.8667 31.9167V13.1667C33.8667 12.0616 33.4312 11.0018 32.656 10.2204C31.8809 9.43899 30.8296 9 29.7333 9ZM13.2 27.75V20.4583H31.8V27.75H13.2ZM13.2 15.25H31.8V18.375H13.2V15.25ZM15.2667 11.0833H29.7333C30.2814 11.0833 30.8071 11.3028 31.1947 11.6935C31.5823 12.0842 31.8 12.6141 31.8 13.1667H13.2C13.2 12.6141 13.4177 12.0842 13.8053 11.6935C14.1929 11.3028 14.7186 11.0833 15.2667 11.0833ZM16.3 31.9167H13.2V29.8333H16.3V31.9167ZM28.7 31.9167V29.8333H31.8V31.9167H28.7ZM19.4 24.1042C19.4 24.4132 19.3091 24.7153 19.1388 24.9722C18.9685 25.2292 18.7264 25.4295 18.4432 25.5477C18.1599 25.666 17.8483 25.6969 17.5476 25.6366C17.2469 25.5764 16.9708 25.4275 16.754 25.209C16.5372 24.9905 16.3896 24.7121 16.3298 24.409C16.27 24.1059 16.3007 23.7917 16.418 23.5062C16.5353 23.2207 16.734 22.9767 16.9889 22.805C17.2438 22.6333 17.5434 22.5417 17.85 22.5417C18.2611 22.5417 18.6553 22.7063 18.946 22.9993C19.2367 23.2923 19.4 23.6898 19.4 24.1042ZM28.7 24.1042C28.7 24.4132 28.6091 24.7153 28.4388 24.9722C28.2685 25.2292 28.0264 25.4295 27.7432 25.5477C27.4599 25.666 27.1483 25.6969 26.8476 25.6366C26.5469 25.5764 26.2708 25.4275 26.054 25.209C25.8372 24.9905 25.6896 24.7121 25.6298 24.409C25.57 24.1059 25.6007 23.7917 25.718 23.5062C25.8353 23.2207 26.034 22.9767 26.2889 22.805C26.5438 22.6333 26.8434 22.5417 27.15 22.5417C27.5611 22.5417 27.9553 22.7063 28.246 22.9993C28.5367 23.2923 28.7 23.6898 28.7 24.1042ZM38 15.25V18.375C38 18.6513 37.8911 18.9162 37.6973 19.1116C37.5036 19.3069 37.2407 19.4167 36.9667 19.4167C36.6926 19.4167 36.4298 19.3069 36.236 19.1116C36.0422 18.9162 35.9333 18.6513 35.9333 18.375V15.25C35.9333 14.9737 36.0422 14.7088 36.236 14.5134C36.4298 14.3181 36.6926 14.2083 36.9667 14.2083C37.2407 14.2083 37.5036 14.3181 37.6973 14.5134C37.8911 14.7088 38 14.9737 38 15.25ZM9.06667 15.25V18.375C9.06667 18.6513 8.9578 18.9162 8.76401 19.1116C8.57022 19.3069 8.30739 19.4167 8.03333 19.4167C7.75928 19.4167 7.49644 19.3069 7.30266 19.1116C7.10887 18.9162 7 18.6513 7 18.375V15.25C7 14.9737 7.10887 14.7088 7.30266 14.5134C7.49644 14.3181 7.75928 14.2083 8.03333 14.2083C8.30739 14.2083 8.57022 14.3181 8.76401 14.5134C8.9578 14.7088 9.06667 14.9737 9.06667 15.25Z" fill="white"/>
</svg>
