<svg width="46" height="42" viewBox="0 0 46 42" fill="none" xmlns="http://www.w3.org/2000/svg">
<ellipse cx="23" cy="21" rx="23" ry="21" fill="#1976D2"/>
<path d="M36.9375 18.3306H33.2392L27.6562 12.6186C27.4654 12.4218 27.2383 12.2657 26.988 12.1595C26.7377 12.0534 26.4693 11.9991 26.1983 12H11.708C11.3692 12.0007 11.0358 12.0867 10.7372 12.2504C10.4387 12.4142 10.1841 12.6507 9.99609 12.939L6.17273 18.8001C6.06039 18.9738 6.00034 19.1774 6 19.3857V25.7163C6 26.2759 6.2173 26.8126 6.60409 27.2084C6.99089 27.6041 7.51549 27.8264 8.0625 27.8264H10.2539C10.4811 28.7343 10.9971 29.5389 11.7207 30.1135C12.4442 30.6881 13.3341 31 14.25 31C15.1659 31 16.0558 30.6881 16.7793 30.1135C17.5029 29.5389 18.0189 28.7343 18.2461 27.8264H26.7539C26.9811 28.7343 27.4971 29.5389 28.2207 30.1135C28.9442 30.6881 29.8341 31 30.75 31C31.6659 31 32.5558 30.6881 33.2793 30.1135C34.0029 29.5389 34.5189 28.7343 34.7461 27.8264H36.9375C37.4845 27.8264 38.0091 27.6041 38.3959 27.2084C38.7827 26.8126 39 26.2759 39 25.7163V20.4408C39 19.8811 38.7827 19.3444 38.3959 18.9486C38.0091 18.5529 37.4845 18.3306 36.9375 18.3306ZM11.708 14.1102H26.1983L30.3233 18.3306H8.96484L11.708 14.1102ZM14.25 28.8815C13.8421 28.8815 13.4433 28.7578 13.1041 28.5259C12.765 28.294 12.5006 27.9645 12.3445 27.5789C12.1884 27.1933 12.1475 26.769 12.2271 26.3597C12.3067 25.9503 12.5031 25.5743 12.7916 25.2792C13.08 24.9841 13.4475 24.7831 13.8476 24.7017C14.2477 24.6203 14.6624 24.6621 15.0393 24.8218C15.4162 24.9815 15.7383 25.252 15.9649 25.599C16.1915 25.946 16.3125 26.354 16.3125 26.7713C16.3125 27.331 16.0952 27.8677 15.7084 28.2635C15.3216 28.6592 14.797 28.8815 14.25 28.8815ZM30.75 28.8815C30.3421 28.8815 29.9433 28.7578 29.6041 28.5259C29.265 28.294 29.0006 27.9645 28.8445 27.5789C28.6884 27.1933 28.6475 26.769 28.7271 26.3597C28.8067 25.9503 29.0031 25.5743 29.2916 25.2792C29.58 24.9841 29.9475 24.7831 30.3476 24.7017C30.7477 24.6203 31.1624 24.6621 31.5393 24.8218C31.9162 24.9815 32.2383 25.252 32.4649 25.599C32.6915 25.946 32.8125 26.354 32.8125 26.7713C32.8125 27.331 32.5952 27.8677 32.2084 28.2635C31.8216 28.6592 31.297 28.8815 30.75 28.8815ZM36.9375 25.7163H34.7461C34.5189 24.8084 34.0029 24.0038 33.2793 23.4292C32.5558 22.8546 31.6659 22.5427 30.75 22.5427C29.8341 22.5427 28.9442 22.8546 28.2207 23.4292C27.4971 24.0038 26.9811 24.8084 26.7539 25.7163H18.2461C18.0189 24.8084 17.5029 24.0038 16.7793 23.4292C16.0558 22.8546 15.1659 22.5427 14.25 22.5427C13.3341 22.5427 12.4442 22.8546 11.7207 23.4292C10.9971 24.0038 10.4811 24.8084 10.2539 25.7163H8.0625V20.4408H36.9375V25.7163Z" fill="white"/>
</svg>
