<svg width="46" height="42" viewBox="0 0 46 42" fill="none" xmlns="http://www.w3.org/2000/svg">
<ellipse cx="23" cy="21" rx="23" ry="21" fill="#BBDEFB"/>
<path d="M34.4137 19.0086L24.4137 8.60873C24.0387 8.21895 23.5302 8 23 8C22.4698 8 21.9613 8.21895 21.5863 8.60873L11.5863 19.0086C11.3996 19.2012 11.2517 19.4305 11.1511 19.6832C11.0504 19.9358 10.9991 20.2067 11 20.4802V32.96C11 33.2358 11.1054 33.5004 11.2929 33.6954C11.4804 33.8904 11.7348 34 12 34H20C20.2652 34 20.5196 33.8904 20.7071 33.6954C20.8946 33.5004 21 33.2358 21 32.96V25.6801H25V32.96C25 33.2358 25.1054 33.5004 25.2929 33.6954C25.4804 33.8904 25.7348 34 26 34H34C34.2652 34 34.5196 33.8904 34.7071 33.6954C34.8946 33.5004 35 33.2358 35 32.96V20.4802C35.0009 20.2067 34.9496 19.9358 34.8489 19.6832C34.7483 19.4305 34.6004 19.2012 34.4137 19.0086ZM33 31.92H27V24.6401C27 24.3643 26.8946 24.0998 26.7071 23.9047C26.5196 23.7097 26.2652 23.6001 26 23.6001H20C19.7348 23.6001 19.4804 23.7097 19.2929 23.9047C19.1054 24.0998 19 24.3643 19 24.6401V31.92H13V20.4802L23 10.0803L33 20.4802V31.92Z" fill="black"/>
</svg>
